<svg xmlns="http://www.w3.org/2000/svg" viewBox="0 0 32 32">
  <!-- Anthill mound (dome shape) -->
  <ellipse cx="16" cy="26" rx="13" ry="4" fill="#2563eb" opacity="0.15"/>
  <path d="M6 26 Q6 12 16 8 Q26 12 26 26 Z" fill="#2563eb"/>
  <!-- Mound entrance hole -->
  <ellipse cx="16" cy="23" rx="3" ry="2" fill="#1d4ed8"/>
  <!-- Ant worker (top-down view) -->
  <!-- Antennae -->
  <line x1="13" y1="14" x2="10" y2="10" stroke="#fff" stroke-width="1.2" stroke-linecap="round"/>
  <line x1="19" y1="14" x2="22" y2="10" stroke="#fff" stroke-width="1.2" stroke-linecap="round"/>
  <!-- Legs -->
  <line x1="13" y1="15" x2="9" y2="13" stroke="#fff" stroke-width="1.2" stroke-linecap="round"/>
  <line x1="19" y1="15" x2="23" y2="13" stroke="#fff" stroke-width="1.2" stroke-linecap="round"/>
  <line x1="13" y1="17" x2="8" y2="17" stroke="#fff" stroke-width="1.2" stroke-linecap="round"/>
  <line x1="19" y1="17" x2="24" y2="17" stroke="#fff" stroke-width="1.2" stroke-linecap="round"/>
  <line x1="13" y1="19" x2="9" y2="21" stroke="#fff" stroke-width="1.2" stroke-linecap="round"/>
  <line x1="19" y1="19" x2="23" y2="21" stroke="#fff" stroke-width="1.2" stroke-linecap="round"/>
  <!-- Body segments -->
  <circle cx="16" cy="13" r="2.5" fill="#fff"/>
  <ellipse cx="16" cy="17.5" rx="2" ry="3" fill="#fff"/>
  <ellipse cx="16" cy="22" rx="3" ry="3.5" fill="#fff"/>
</svg>
